<?xml version="1.0" encoding="UTF-8" standalone="no"?>
<svg
   sodipodi:docname="icon.svg"
   id="svg8"
   version="1.1"
   viewBox="0 0 33.866666 33.866668"
   height="128"
   width="128"
   xmlns:inkscape="http://www.inkscape.org/namespaces/inkscape"
   xmlns:sodipodi="http://sodipodi.sourceforge.net/DTD/sodipodi-0.dtd"
   xmlns="http://www.w3.org/2000/svg"
   xmlns:svg="http://www.w3.org/2000/svg">
  <defs
     id="defs2" />
  <sodipodi:namedview
     inkscape:window-maximized="1"
     inkscape:window-y="27"
     inkscape:window-x="1920"
     inkscape:window-height="1016"
     inkscape:window-width="1920"
     units="px"
     showgrid="false"
     inkscape:document-rotation="0"
     inkscape:current-layer="svg8"
     inkscape:document-units="px"
     inkscape:cy="92.624995"
     inkscape:cx="67.249997"
     inkscape:zoom="4.0000002"
     inkscape:pageshadow="2"
     inkscape:pageopacity="0.0"
     borderopacity="1.0"
     bordercolor="#666666"
     pagecolor="#ffffff"
     id="base"
     inkscape:showpageshadow="2"
     inkscape:pagecheckerboard="0"
     inkscape:deskcolor="#d1d1d1" />
  <path
     id="path890"
     style="color:#000000;font-style:normal;font-variant:normal;font-weight:normal;font-stretch:normal;font-size:medium;line-height:normal;font-family:sans-serif;font-variant-ligatures:normal;font-variant-position:normal;font-variant-caps:normal;font-variant-numeric:normal;font-variant-alternates:normal;font-variant-east-asian:normal;font-feature-settings:normal;font-variation-settings:normal;text-indent:0;text-align:start;text-decoration:none;text-decoration-line:none;text-decoration-style:solid;text-decoration-color:#000000;letter-spacing:normal;word-spacing:normal;text-transform:none;writing-mode:lr-tb;direction:ltr;text-orientation:mixed;dominant-baseline:auto;baseline-shift:baseline;text-anchor:start;white-space:normal;shape-padding:0;shape-margin:0;inline-size:0;clip-rule:nonzero;display:inline;overflow:visible;visibility:visible;opacity:0.4;isolation:auto;mix-blend-mode:normal;color-interpolation:sRGB;color-interpolation-filters:linearRGB;solid-color:#000000;solid-opacity:1;vector-effect:none;fill:#000000;fill-opacity:1;fill-rule:nonzero;stroke:none;stroke-width:0.991764;stroke-linecap:round;stroke-linejoin:round;stroke-miterlimit:4;stroke-dasharray:none;stroke-dashoffset:0;stroke-opacity:1;paint-order:stroke markers fill;color-rendering:auto;image-rendering:auto;shape-rendering:auto;text-rendering:auto;enable-background:accumulate;stop-color:#000000"
     d="M 10.318751,6.3500002 A 5.9531251,5.9531251 0 0 0 4.3656259,12.303125 V 14.2875 H 4.2596892 a 0.81876852,0.80600131 0 0 0 -0.8201049,0.807186 v 8.971029 a 0.81876852,0.80600131 0 0 0 0.8201049,0.805119 H 16.377813 a 0.81876852,0.80600131 0 0 0 0.820105,-0.805119 V 15.094686 A 0.81876852,0.80600131 0 0 0 16.377813,14.2875 H 16.271876 V 12.303125 A 5.9531251,5.9531251 0 0 0 10.318751,6.3500002 Z m -0.01344,1.3229167 a 4.6302084,4.6302084 0 0 1 0.01344,0 4.6302084,4.6302084 0 0 1 4.630209,4.6302081 V 14.2875 H 5.6885426 V 12.303125 A 4.6302084,4.6302084 0 0 1 10.305315,7.6729169 Z" />
  <path
     sodipodi:type="star"
     style="opacity:1;fill:#4d4d4d;stroke:#4d4d4d;stroke-width:2.41544;stroke-linecap:round;stroke-linejoin:round;stroke-miterlimit:4;stroke-dasharray:none;paint-order:stroke markers fill"
     id="path861"
     sodipodi:sides="3"
     sodipodi:cx="-7.5339308"
     sodipodi:cy="-15.33175"
     sodipodi:r1="1.7638881"
     sodipodi:r2="0.881944"
     sodipodi:arg1="-1.5707963"
     sodipodi:arg2="-0.52359878"
     inkscape:flatsided="false"
     inkscape:rounded="0"
     inkscape:randomized="0"
     d="m -7.5339307,-17.095638 0.7637858,1.322916 0.763786,1.322916 -1.5275719,0 -1.5275719,0 0.763786,-1.322916 z"
     inkscape:transform-center-y="0.80683626"
     transform="matrix(-2.0599434,0,0,-1.8297055,9.9586368,-10.470783)" />
  <g
     id="g903"
     transform="translate(0.1322925)">
    <g
       id="g897">
      <path
         id="path867"
         style="color:#000000;font-style:normal;font-variant:normal;font-weight:normal;font-stretch:normal;font-size:medium;line-height:normal;font-family:sans-serif;font-variant-ligatures:normal;font-variant-position:normal;font-variant-caps:normal;font-variant-numeric:normal;font-variant-alternates:normal;font-variant-east-asian:normal;font-feature-settings:normal;font-variation-settings:normal;text-indent:0;text-align:start;text-decoration:none;text-decoration-line:none;text-decoration-style:solid;text-decoration-color:#000000;letter-spacing:normal;word-spacing:normal;text-transform:none;writing-mode:lr-tb;direction:ltr;text-orientation:mixed;dominant-baseline:auto;baseline-shift:baseline;text-anchor:start;white-space:normal;shape-padding:0;shape-margin:0;inline-size:0;clip-rule:nonzero;display:inline;overflow:visible;visibility:visible;opacity:1;isolation:auto;mix-blend-mode:normal;color-interpolation:sRGB;color-interpolation-filters:linearRGB;solid-color:#000000;solid-opacity:1;vector-effect:none;fill:#ffe100;fill-opacity:1;fill-rule:nonzero;stroke:none;stroke-width:0.991764;stroke-linecap:round;stroke-linejoin:round;stroke-miterlimit:4;stroke-dasharray:none;stroke-dashoffset:0;stroke-opacity:1;paint-order:stroke markers fill;color-rendering:auto;image-rendering:auto;shape-rendering:auto;text-rendering:auto;enable-background:accumulate;stop-color:#000000"
         d="M 4.1275752,13.758336 A 0.81876851,0.80600129 0 0 0 3.3072923,14.56532 v 8.971398 a 0.81876851,0.80600129 0 0 0 0.8202829,0.804949 H 16.245342 a 0.81876851,0.80600129 0 0 0 0.820283,-0.804949 V 14.56532 a 0.81876851,0.80600129 0 0 0 -0.820283,-0.806984 z" />
      <path
         id="circle879"
         style="opacity:1;fill:#858585;fill-opacity:1;stroke:none;stroke-width:2.26703;stroke-linecap:round;stroke-linejoin:round;stroke-miterlimit:4;stroke-dasharray:none;paint-order:stroke markers fill"
         d="M 10.18646,5.8208334 A 5.9531251,5.9531251 0 0 0 4.233334,11.773961 v 1.984375 H 5.5562507 V 11.773961 A 4.6302084,4.6302084 0 0 1 10.18646,7.1437501 4.6302084,4.6302084 0 0 1 14.816668,11.773961 v 1.984375 h 1.322917 V 11.773961 A 5.9531251,5.9531251 0 0 0 10.18646,5.8208334 Z" />
    </g>
    <rect
       style="opacity:1;fill:#404040;fill-opacity:1;stroke:#333333;stroke-width:1.47834;stroke-linecap:round;stroke-linejoin:round;stroke-miterlimit:4;stroke-dasharray:none;paint-order:stroke markers fill"
       id="rect888"
       width="1.1013447"
       height="1.8289524"
       x="9.6358967"
       y="18.135525" />
  </g>
</svg>
